# xmcd
# 
# Track frame offsets:
#     150
#     15815
#     34529
#     47372
#     63151
#     82151
#     96692
#     111132
#     124299
#     140180
#     158464
#     170210
# 
# Disc length: 2443
# 
# Revision: 3
# Processed by: cddbd v1.5.2PL0 Copyright (c) Steve Scherf et al.
# Submitted via: fre:ac v1.0.31
# 
DISCID=9c09890c
DTITLE=Gretchen Wilson - Ready To Get Rowdy
DYEAR=2017
DGENRE=Country
TTITLE0=Stacy
TTITLE1=Salt Mines
TTITLE2=Summertime Town
TTITLE3=Rowdy
TTITLE4=Whiskey and My Bible
TTITLE5=Bad Feeling (feat. Kid Rock)
TTITLE6=Letting Go of Hanging On
TTITLE7=I Ain't That Desperate Yet
TTITLE8=Hard Earned Money
TTITLE9=Mary Kay and Maybelline
TTITLE10=A Little Loretta
TTITLE11=Big Wood Deck
EXTD=YEAR: 2017
EXTT0=
EXTT1=
EXTT2=
EXTT3=
EXTT4=
EXTT5=
EXTT6=
EXTT7=
EXTT8=
EXTT9=
EXTT10=
EXTT11=
PLAYORDER=
